<svg width="1081" height="138" viewBox="0 0 1081 138" fill="none" xmlns="http://www.w3.org/2000/svg">
<path d="M0.473001 138V0.0999906H90.896L90.699 17.239H15.051L19.779 12.314L19.976 138H0.473001ZM69.0906 138L131.54 0.0999906H151.043L213.689 138H193.004L137.253 11.132H145.133L89.3816 138H69.0906ZM95.6856 103.525L101.005 87.765H178.623L184.336 103.525H95.6856ZM237.489 138V0.0999906H291.27C303.352 0.0999906 313.662 2.00433 322.199 5.813C330.735 9.62166 337.302 15.1377 341.899 22.361C346.495 29.5843 348.794 38.1867 348.794 48.168C348.794 58.1493 346.495 66.7517 341.899 73.975C337.302 81.067 330.735 86.583 322.199 90.523C313.662 94.3317 303.352 96.236 291.27 96.236H248.324L257.189 86.977V138H237.489ZM257.189 88.947L248.324 79.097H290.679C303.287 79.097 312.808 76.4047 319.244 71.02C325.81 65.6353 329.094 58.018 329.094 48.168C329.094 38.318 325.81 30.7007 319.244 25.316C312.808 19.9313 303.287 17.239 290.679 17.239H248.324L257.189 7.38899V88.947ZM350.162 138L412.611 0.0999906H432.114L494.76 138H474.075L418.324 11.132H426.204L370.453 138H350.162ZM376.757 103.525L382.076 87.765H459.694L465.407 103.525H376.757ZM617.454 0.0999906H637.154V138H617.454V0.0999906ZM538.26 138H518.56V0.0999906H538.26V138ZM619.227 76.536H536.29V59.397H619.227V76.536ZM708.332 138V12.117L713.257 17.239H661.249V0.0999906H774.918V17.239H722.91L727.638 12.117V138H708.332ZM798.862 138V0.0999906H818.365V106.48L899.923 0.0999906H918.047V138H898.741V31.817L816.986 138H798.862ZM961.04 138V0.0999906H980.543V106.48L1062.1 0.0999906H1080.23V138H1060.92V31.817L979.164 138H961.04Z" fill="url(#paint0_linear_2039_44)" fill-opacity="0.46"/>
<defs>
<linearGradient id="paint0_linear_2039_44" x1="469.09" y1="176.382" x2="467.068" y2="-35.4207" gradientUnits="userSpaceOnUse">
<stop stop-color="#16B2B2" stop-opacity="0.17"/>
<stop offset="1" stop-color="#16B2B2" stop-opacity="0"/>
</linearGradient>
</defs>
</svg>
