<svg width="666" height="171" viewBox="0 0 666 171" fill="none" xmlns="http://www.w3.org/2000/svg">
<path d="M12.972 141.576C11.002 141.576 9.032 141.445 7.062 141.182C5.092 140.919 2.925 140.525 0.561 140L1.94 122.467C4.04133 122.992 6.14267 123.255 8.244 123.255C14.0227 123.255 18.6193 120.957 22.034 116.36C25.4487 111.763 27.944 104.803 29.52 95.478C31.2273 86.1533 32.3437 74.399 32.869 60.215L35.036 2.09999H132.157V140H112.851V14.117L117.579 19.239H47.644L51.978 13.92L50.402 59.624C50.008 73.2827 49.0887 85.234 47.644 95.478C46.1993 105.722 44.0323 114.259 41.143 121.088C38.2537 127.917 34.5107 133.039 29.914 136.454C25.4487 139.869 19.8013 141.576 12.972 141.576ZM175.111 140V2.09999H194.614V61.2H230.271V78.93H194.614V140H175.111ZM289.371 141.576C279.389 141.576 270.13 139.869 261.594 136.454C253.057 132.908 245.637 127.983 239.333 121.679C233.029 115.244 228.104 107.758 224.558 99.221C221.143 90.6843 219.436 81.294 219.436 71.05C219.436 60.806 221.143 51.4157 224.558 42.879C228.104 34.3423 233.029 26.922 239.333 20.618C245.637 14.1827 253.057 9.25766 261.594 5.84299C270.13 2.297 279.389 0.523999 289.371 0.523999C299.352 0.523999 308.611 2.297 317.148 5.84299C325.816 9.25766 333.302 14.1827 339.606 20.618C345.91 26.922 350.769 34.3423 354.184 42.879C357.73 51.4157 359.503 60.806 359.503 71.05C359.503 81.294 357.73 90.6843 354.184 99.221C350.769 107.758 345.91 115.244 339.606 121.679C333.302 127.983 325.816 132.908 317.148 136.454C308.611 139.869 299.352 141.576 289.371 141.576ZM289.371 123.846C296.594 123.846 303.226 122.598 309.268 120.103C315.44 117.476 320.759 113.799 325.225 109.071C329.821 104.343 333.367 98.7613 335.863 92.326C338.489 85.8907 339.803 78.7987 339.803 71.05C339.803 63.3013 338.489 56.2093 335.863 49.774C333.367 43.3387 329.821 37.757 325.225 33.029C320.759 28.301 315.44 24.6893 309.268 22.194C303.226 19.5673 296.66 18.254 289.568 18.254C282.476 18.254 275.843 19.5673 269.671 22.194C263.629 24.6893 258.31 28.301 253.714 33.029C249.248 37.757 245.702 43.3387 243.076 49.774C240.58 56.2093 239.333 63.3013 239.333 71.05C239.333 78.7987 240.58 85.8907 243.076 92.326C245.702 98.7613 249.248 104.343 253.714 109.071C258.31 113.799 263.629 117.476 269.671 120.103C275.843 122.598 282.41 123.846 289.371 123.846ZM479.299 130.741V19.239H418.82L417.835 48.198C417.441 57.9167 416.784 67.2413 415.865 76.172C415.077 85.1027 413.895 93.1797 412.319 100.403C410.743 107.495 408.51 113.339 405.621 117.936C402.863 122.533 399.317 125.356 394.983 126.407L373.707 122.861C378.829 123.255 383.031 121.548 386.315 117.739C389.729 113.799 392.356 108.349 394.195 101.388C396.165 94.296 397.609 86.0877 398.529 76.763C399.448 67.307 400.105 57.1943 400.499 46.425L401.878 2.09999H498.802V130.741H479.299ZM368.782 170.141L368.979 122.861H519.093V170.141H500.772V140H387.3L387.103 170.141H368.782ZM546.025 140V2.09999H565.528V108.48L647.086 2.09999H665.21V140H645.904V33.817L564.149 140H546.025Z" fill="url(#paint0_linear_2046_231)" fill-opacity="0.46"/>
<defs>
<linearGradient id="paint0_linear_2046_231" x1="298.687" y1="160.806" x2="296.392" y2="-15.9816" gradientUnits="userSpaceOnUse">
<stop stop-color="#16B2B2" stop-opacity="0.17"/>
<stop offset="1" stop-color="#16B2B2" stop-opacity="0"/>
</linearGradient>
</defs>
</svg>
