<svg width="1478" height="142" viewBox="0 0 1478 142" fill="none" xmlns="http://www.w3.org/2000/svg">
<path d="M73.528 141.576C63.0213 141.576 53.237 139.803 44.175 136.257C35.2443 132.711 27.4957 127.786 20.929 121.482C14.3623 115.047 9.24033 107.561 5.563 99.024C1.88567 90.4873 0.0470005 81.1627 0.0470005 71.05C0.0470005 60.9373 1.88567 51.6127 5.563 43.076C9.24033 34.5393 14.3623 27.119 20.929 20.815C27.4957 14.3797 35.2443 9.38899 44.175 5.84299C53.1057 2.297 62.89 0.523999 73.528 0.523999C84.0347 0.523999 93.6877 2.297 102.487 5.84299C111.418 9.25766 119.166 14.1827 125.733 20.618C132.431 26.922 137.553 34.3423 141.099 42.879C144.776 51.4157 146.615 60.806 146.615 71.05C146.615 81.294 144.776 90.6843 141.099 99.221C137.553 107.758 132.431 115.244 125.733 121.679C119.166 127.983 111.418 132.908 102.487 136.454C93.6877 139.869 84.0347 141.576 73.528 141.576ZM73.528 124.043C81.1453 124.043 88.1717 122.73 94.607 120.103C101.174 117.476 106.821 113.799 111.549 109.071C116.408 104.212 120.151 98.5643 122.778 92.129C125.536 85.6937 126.915 78.6673 126.915 71.05C126.915 63.4327 125.536 56.4063 122.778 49.971C120.151 43.5357 116.408 37.954 111.549 33.226C106.821 28.3667 101.174 24.6237 94.607 21.997C88.1717 19.3703 81.1453 18.057 73.528 18.057C65.7793 18.057 58.6217 19.3703 52.055 21.997C45.6197 24.6237 39.9723 28.3667 35.113 33.226C30.2537 37.954 26.445 43.5357 23.687 49.971C21.0603 56.4063 19.747 63.4327 19.747 71.05C19.747 78.6673 21.0603 85.6937 23.687 92.129C26.445 98.5643 30.2537 104.212 35.113 109.071C39.9723 113.799 45.6197 117.476 52.055 120.103C58.6217 122.73 65.7793 124.043 73.528 124.043ZM324.154 140L274.116 72.035L290.073 62.185L346.612 140H324.154ZM231.367 140V2.09999H250.673V140H231.367ZM244.763 79.324V61.988H289.482V79.324H244.763ZM291.846 73.217L273.722 70.459L323.169 2.09999H344.248L291.846 73.217ZM428.474 141.576C417.968 141.576 408.183 139.803 399.121 136.257C390.191 132.711 382.442 127.786 375.875 121.482C369.309 115.047 364.187 107.561 360.509 99.024C356.832 90.4873 354.993 81.1627 354.993 71.05C354.993 60.9373 356.832 51.6127 360.509 43.076C364.187 34.5393 369.309 27.119 375.875 20.815C382.442 14.3797 390.191 9.38899 399.121 5.84299C408.052 2.297 417.836 0.523999 428.474 0.523999C438.981 0.523999 448.634 2.297 457.433 5.84299C466.364 9.25766 474.113 14.1827 480.679 20.618C487.377 26.922 492.499 34.3423 496.045 42.879C499.723 51.4157 501.561 60.806 501.561 71.05C501.561 81.294 499.723 90.6843 496.045 99.221C492.499 107.758 487.377 115.244 480.679 121.679C474.113 127.983 466.364 132.908 457.433 136.454C448.634 139.869 438.981 141.576 428.474 141.576ZM428.474 124.043C436.092 124.043 443.118 122.73 449.553 120.103C456.12 117.476 461.767 113.799 466.495 109.071C471.355 104.212 475.098 98.5643 477.724 92.129C480.482 85.6937 481.861 78.6673 481.861 71.05C481.861 63.4327 480.482 56.4063 477.724 49.971C475.098 43.5357 471.355 37.954 466.495 33.226C461.767 28.3667 456.12 24.6237 449.553 21.997C443.118 19.3703 436.092 18.057 428.474 18.057C420.726 18.057 413.568 19.3703 407.001 21.997C400.566 24.6237 394.919 28.3667 390.059 33.226C385.2 37.954 381.391 43.5357 378.633 49.971C376.007 56.4063 374.693 63.4327 374.693 71.05C374.693 78.6673 376.007 85.6937 378.633 92.129C381.391 98.5643 385.2 104.212 390.059 109.071C394.919 113.799 400.566 117.476 407.001 120.103C413.568 122.73 420.726 124.043 428.474 124.043ZM533.408 140V2.09999H549.562L611.42 106.313H602.752L663.822 2.09999H679.976L680.173 140H661.261L661.064 31.847H665.595L611.223 123.255H602.161L547.395 31.847H552.32V140H533.408ZM723.097 140V2.09999H841.888V140H822.582V14.117L827.31 19.239H737.675L742.6 14.117V140H723.097ZM865.782 140L928.231 2.09999H947.734L1010.38 140H989.695L933.944 13.132H941.824L886.073 140H865.782ZM892.377 105.525L897.696 89.765H975.314L981.027 105.525H892.377ZM1133.07 2.09999H1152.77V140H1133.07V2.09999ZM1053.88 140H1034.18V2.09999H1053.88V140ZM1134.85 78.536H1051.91V61.397H1134.85V78.536ZM1195.78 140V2.09999H1215.28V108.48L1296.84 2.09999H1314.97V140H1295.66V33.817L1213.91 140H1195.78ZM1357.96 140V2.09999H1377.46V108.48L1459.02 2.09999H1477.15V140H1457.84V33.817L1376.08 140H1357.96Z" fill="url(#paint0_linear_2046_157)"/>
<defs>
<linearGradient id="paint0_linear_2046_157" x1="648.544" y1="160.806" x2="647.496" y2="-16.0052" gradientUnits="userSpaceOnUse">
<stop stop-color="white" stop-opacity="0.1518"/>
<stop offset="1" stop-color="white" stop-opacity="0"/>
</linearGradient>
</defs>
</svg>
