<svg width="1270" height="121" viewBox="0 0 1270 121" fill="none" xmlns="http://www.w3.org/2000/svg">
<path d="M0.151001 99V1.69999H83.968V99H70.346V10.179L73.682 13.793H10.437L13.912 10.179V99H0.151001ZM114.31 99V1.69999H152.257C160.783 1.69999 168.057 3.04366 174.08 5.731C180.104 8.41833 184.737 12.3103 187.98 17.407C191.224 22.5037 192.845 28.5733 192.845 35.616C192.845 42.6587 191.224 48.7283 187.98 53.825C184.737 58.829 180.104 62.721 174.08 65.501C168.057 68.1883 160.783 69.532 152.257 69.532H121.955L128.21 62.999V99H114.31ZM128.21 64.389L121.955 57.439H151.84C160.736 57.439 167.455 55.5393 171.995 51.74C176.629 47.9407 178.945 42.566 178.945 35.616C178.945 28.666 176.629 23.2913 171.995 19.492C167.455 15.6927 160.736 13.793 151.84 13.793H121.955L128.21 6.84299V64.389ZM224.829 43.678H274.869V55.493H224.829V43.678ZM226.08 86.907H282.792V99H212.18V1.69999H280.846V13.793H226.08V86.907ZM304.621 99V1.69999H318.382V76.76L375.928 1.69999H388.716V99H375.094V24.079L317.409 99H304.621ZM419.051 99V1.69999H430.449L474.095 75.231H467.979L511.069 1.69999H522.467L522.606 99H509.262L509.123 22.689H512.32L473.956 87.185H467.562L428.92 22.689H432.395V99H419.051ZM552.615 86.768C557.434 88.5287 561.882 88.992 565.959 88.158C570.037 87.2313 573.697 84.127 576.94 78.845L581.666 71.339L583.056 69.81L618.779 1.69999H632.54L589.311 81.764C586.068 87.88 582.269 92.5133 577.913 95.664C573.651 98.722 569.017 100.39 564.013 100.668C559.102 101.039 554.098 100.112 549.001 97.888L552.615 86.768ZM582.639 82.181L539.966 1.69999H554.839L590.284 71.061L582.639 82.181ZM704.37 86.907L701.173 90.521V1.69999H714.795V90.521L711.32 86.907H758.719L755.244 90.521V1.69999H768.866V99H646.963V1.69999H660.724V90.521L657.249 86.907H704.37ZM770.673 120.267V95.386L774.148 99H754.966V86.907H783.461V120.267H770.673ZM815.444 43.678H865.484V55.493H815.444V43.678ZM816.695 86.907H873.407V99H802.795V1.69999H871.461V13.793H816.695V86.907ZM938.606 100.112C931.193 100.112 924.336 98.9073 918.034 96.498C911.826 93.996 906.405 90.521 901.771 86.073C897.231 81.5323 893.663 76.2503 891.068 70.227C888.474 64.2037 887.176 57.578 887.176 50.35C887.176 43.122 888.474 36.4963 891.068 30.473C893.663 24.4497 897.277 19.214 901.91 14.766C906.544 10.2253 911.965 6.75033 918.173 4.34099C924.475 1.839 931.332 0.587999 938.745 0.587999C946.251 0.587999 953.155 1.88533 959.456 4.48C965.85 6.98199 971.271 10.735 975.719 15.739L966.684 24.496C962.978 20.604 958.808 17.7313 954.174 15.878C949.541 13.932 944.583 12.959 939.301 12.959C933.834 12.959 928.737 13.8857 924.011 15.739C919.378 17.5923 915.347 20.187 911.918 23.523C908.49 26.859 905.802 30.8437 903.856 35.477C902.003 40.0177 901.076 44.9753 901.076 50.35C901.076 55.7247 902.003 60.7287 903.856 65.362C905.802 69.9027 908.49 73.841 911.918 77.177C915.347 80.513 919.378 83.1077 924.011 84.961C928.737 86.8143 933.834 87.741 939.301 87.741C944.583 87.741 949.541 86.8143 954.174 84.961C958.808 83.015 962.978 80.0497 966.684 76.065L975.719 84.822C971.271 89.826 965.85 93.6253 959.456 96.22C953.155 98.8147 946.205 100.112 938.606 100.112ZM1013.66 99V10.179L1017.14 13.793H980.44V1.69999H1060.64V13.793H1023.95L1027.28 10.179V99H1013.66ZM1077.54 99V1.69999H1119.38C1129.94 1.69999 1138.23 3.83133 1144.26 8.09399C1150.28 12.3567 1153.29 18.5653 1153.29 26.72C1153.29 34.6893 1150.42 40.8053 1144.67 45.068C1138.93 49.238 1131.38 51.323 1122.02 51.323L1124.52 47.153C1135.36 47.153 1143.65 49.3307 1149.4 53.686C1155.24 57.9487 1158.16 64.2037 1158.16 72.451C1158.16 80.791 1155.1 87.324 1148.98 92.05C1142.96 96.6833 1133.97 99 1122.02 99H1077.54ZM1091.3 88.019H1121.74C1129.15 88.019 1134.71 86.6753 1138.42 83.988C1142.22 81.208 1144.12 76.9917 1144.12 71.339C1144.12 65.6863 1142.22 61.5627 1138.42 58.968C1134.71 56.3733 1129.15 55.076 1121.74 55.076H1091.3V88.019ZM1091.3 44.512H1118.4C1125.17 44.512 1130.31 43.1683 1133.83 40.481C1137.45 37.7937 1139.25 33.8553 1139.25 28.666C1139.25 23.384 1137.45 19.3993 1133.83 16.712C1130.31 14.0247 1125.17 12.681 1118.4 12.681H1091.3V44.512ZM1167.9 99L1211.96 1.69999H1225.72L1269.92 99H1255.33L1215.99 9.48399H1221.55L1182.21 99H1167.9ZM1186.66 74.675L1190.41 63.555H1245.18L1249.21 74.675H1186.66Z" fill="url(#paint0_linear_2099_83)" fill-opacity="0.46"/>
<defs>
<linearGradient id="paint0_linear_2099_83" x1="546.661" y1="126.902" x2="545.778" y2="-22.9841" gradientUnits="userSpaceOnUse">
<stop stop-color="#16B2B2" stop-opacity="0.17"/>
<stop offset="1" stop-color="#16B2B2" stop-opacity="0"/>
</linearGradient>
</defs>
</svg>
