<svg width="11" height="20" viewBox="0 0 11 20" fill="none" xmlns="http://www.w3.org/2000/svg">
<path d="M1.79544 10.0056L10.2874 1.27863C10.3574 1.2083 10.4126 1.12481 10.4501 1.03297C10.4875 0.941143 10.5063 0.842799 10.5055 0.743634C10.5047 0.644469 10.4842 0.546451 10.4453 0.455254C10.4063 0.364057 10.3497 0.281491 10.2786 0.212333C10.2075 0.143176 10.1234 0.0888003 10.0312 0.0523535C9.93897 0.0159067 9.84042 -0.00188771 9.74127 0C9.64212 0.00188771 9.54433 0.0234201 9.45356 0.063351C9.36278 0.103282 9.28083 0.160819 9.21244 0.232631L0.21244 9.48263C0.0762178 9.62265 0 9.81028 0 10.0056C0 10.201 0.0762178 10.3886 0.21244 10.5286L9.21244 19.7786C9.28083 19.8504 9.36278 19.908 9.45356 19.9479C9.54433 19.9878 9.64212 20.0094 9.74127 20.0113C9.84042 20.0132 9.93897 19.9954 10.0312 19.9589C10.1234 19.9225 10.2075 19.8681 10.2786 19.7989C10.3497 19.7298 10.4063 19.6472 10.4453 19.556C10.4842 19.4648 10.5047 19.3668 10.5055 19.2676C10.5063 19.1685 10.4875 19.0701 10.4501 18.9783C10.4126 18.8865 10.3574 18.803 10.2874 18.7326L1.79544 10.0056Z" fill="#16B2B2"/>
</svg>
