<svg width="30" height="30" viewBox="0 0 30 30" fill="none" xmlns="http://www.w3.org/2000/svg">
<path d="M15 0C6.71566 0 0 6.71566 0 15C0 23.2843 6.71566 30 15 30C23.2843 30 30 23.2843 30 15C30 6.71566 23.2843 0 15 0Z" fill="#40B3E0"/>
<path d="M22.2989 8.62851L19.6198 22.1364C19.6198 22.1364 19.2451 23.0732 18.2147 22.6235L12.0321 17.8835L9.78401 16.7969L5.99956 15.5229C5.99956 15.5229 5.41878 15.3169 5.36253 14.8672C5.3064 14.4176 6.01831 14.1741 6.01831 14.1741L21.0624 8.27249C21.0624 8.27249 22.2989 7.72921 22.2989 8.62851Z" fill="white"/>
<path d="M11.5569 21.9846C11.5569 21.9846 11.3764 21.9678 11.1515 21.2557C10.9267 20.5438 9.78394 16.7969 9.78394 16.7969L18.8703 11.0265C18.8703 11.0265 19.395 10.708 19.3762 11.0265C19.3762 11.0265 19.4698 11.0827 19.1888 11.3449C18.9078 11.6073 12.0508 17.771 12.0508 17.771" fill="#D2E5F1"/>
<path d="M14.4024 19.7008L11.957 21.9304C11.957 21.9304 11.7658 22.0754 11.5566 21.9845L12.0249 17.843" fill="#B5CFE4"/>
</svg>
