<svg width="955" height="112" viewBox="0 0 955 112" fill="none" xmlns="http://www.w3.org/2000/svg">
<path d="M0.952001 91V1.39999H13.624V70.52L66.616 1.39999H78.392V91H65.848V22.008L12.728 91H0.952001ZM170.583 1.39999H183.383V91H170.583V1.39999ZM119.127 91H106.327V1.39999H119.127V91ZM171.735 51.064H117.847V39.928H171.735V51.064ZM211.327 91V1.39999H249.855C259.583 1.39999 267.22 3.36266 272.767 7.28799C278.314 11.2133 281.087 16.9307 281.087 24.44C281.087 31.7787 278.442 37.4107 273.151 41.336C267.86 45.176 260.906 47.096 252.287 47.096L254.591 43.256C264.575 43.256 272.212 45.2613 277.503 49.272C282.879 53.1973 285.567 58.9573 285.567 66.552C285.567 74.232 282.751 80.248 277.119 84.6C271.572 88.8667 263.295 91 252.287 91H211.327ZM223.999 80.888H252.031C258.858 80.888 263.978 79.6507 267.391 77.176C270.89 74.616 272.639 70.7333 272.639 65.528C272.639 60.3227 270.89 56.5253 267.391 54.136C263.978 51.7467 258.858 50.552 252.031 50.552H223.999V80.888ZM223.999 40.824H248.959C255.188 40.824 259.924 39.5867 263.167 37.112C266.495 34.6373 268.159 31.0107 268.159 26.232C268.159 21.368 266.495 17.6987 263.167 15.224C259.924 12.7493 255.188 11.512 248.959 11.512H223.999V40.824ZM318.6 40.056H364.68V50.936H318.6V40.056ZM319.752 79.864H371.976V91H306.952V1.39999H370.184V12.536H319.752V79.864ZM432.016 92.024C425.189 92.024 418.875 90.9147 413.072 88.696C407.355 86.392 402.363 83.192 398.096 79.096C393.915 74.9147 390.629 70.0507 388.24 64.504C385.851 58.9573 384.656 52.856 384.656 46.2C384.656 39.544 385.851 33.4427 388.24 27.896C390.629 22.3493 393.957 17.528 398.224 13.432C402.491 9.25066 407.483 6.05066 413.2 3.83199C419.003 1.528 425.317 0.375999 432.144 0.375999C439.056 0.375999 445.413 1.57067 451.216 3.96C457.104 6.26399 462.096 9.71999 466.192 14.328L457.872 22.392C454.459 18.808 450.619 16.1627 446.352 14.456C442.085 12.664 437.52 11.768 432.656 11.768C427.621 11.768 422.928 12.6213 418.576 14.328C414.309 16.0347 410.597 18.424 407.44 21.496C404.283 24.568 401.808 28.2373 400.016 32.504C398.309 36.6853 397.456 41.2507 397.456 46.2C397.456 51.1493 398.309 55.7573 400.016 60.024C401.808 64.2053 404.283 67.832 407.44 70.904C410.597 73.976 414.309 76.3653 418.576 78.072C422.928 79.7787 427.621 80.632 432.656 80.632C437.52 80.632 442.085 79.7787 446.352 78.072C450.619 76.28 454.459 73.5493 457.872 69.88L466.192 77.944C462.096 82.552 457.104 86.0507 451.216 88.44C445.413 90.8293 439.013 92.024 432.016 92.024ZM501.131 91V9.20799L504.331 12.536H470.539V1.39999H544.395V12.536H510.603L513.675 9.20799V91H501.131ZM559.952 91V1.39999H572.624V70.52L625.616 1.39999H637.392V91H624.848V22.008L571.728 91H559.952ZM665.327 91V1.39999H677.999V79.864H727.919V1.39999H740.591V91H665.327ZM742.511 111.352V87.672L745.583 91H727.919V79.864H754.415V111.352H742.511ZM771.452 91V1.39999H784.124V70.52L837.116 1.39999H848.892V91H836.348V22.008L783.228 91H771.452ZM876.827 91V1.39999H889.499V70.52L942.491 1.39999H954.267V91H941.723V22.008L888.603 91H876.827Z" fill="url(#paint0_linear_1723_190)" fill-opacity="0.33"/>
<defs>
<linearGradient id="paint0_linear_1723_190" x1="478" y1="-19" x2="478" y2="109" gradientUnits="userSpaceOnUse">
<stop stop-color="white" stop-opacity="0.46"/>
<stop offset="1" stop-color="white" stop-opacity="0"/>
</linearGradient>
</defs>
</svg>
