<svg width="597" height="101" viewBox="0 0 597 101" fill="none" xmlns="http://www.w3.org/2000/svg">
<path d="M51.936 100.112C44.5227 100.112 37.619 98.861 31.225 96.359C24.9237 93.857 19.4563 90.382 14.823 85.934C10.1897 81.3933 6.57567 76.1113 3.981 70.088C1.38633 64.0647 0.0890004 57.4853 0.0890004 50.35C0.0890004 43.2147 1.38633 36.6353 3.981 30.612C6.57567 24.5887 10.1897 19.353 14.823 14.905C19.4563 10.3643 24.9237 6.84299 31.225 4.34099C37.5263 1.839 44.43 0.587999 51.936 0.587999C59.3493 0.587999 66.1603 1.839 72.369 4.34099C78.6703 6.75033 84.1377 10.2253 88.771 14.766C93.497 19.214 97.111 24.4497 99.613 30.473C102.208 36.4963 103.505 43.122 103.505 50.35C103.505 57.578 102.208 64.2037 99.613 70.227C97.111 76.2503 93.497 81.5323 88.771 86.073C84.1377 90.521 78.6703 93.996 72.369 96.498C66.1603 98.9073 59.3493 100.112 51.936 100.112ZM51.936 87.741C57.3107 87.741 62.2683 86.8143 66.809 84.961C71.4423 83.1077 75.427 80.513 78.763 77.177C82.1917 73.7483 84.8327 69.7637 86.686 65.223C88.632 60.6823 89.605 55.7247 89.605 50.35C89.605 44.9753 88.632 40.0177 86.686 35.477C84.8327 30.9363 82.1917 26.998 78.763 23.662C75.427 20.2333 71.4423 17.5923 66.809 15.739C62.2683 13.8857 57.3107 12.959 51.936 12.959C46.4687 12.959 41.4183 13.8857 36.785 15.739C32.2443 17.5923 28.2597 20.2333 24.831 23.662C21.4023 26.998 18.715 30.9363 16.769 35.477C14.9157 40.0177 13.989 44.9753 13.989 50.35C13.989 55.7247 14.9157 60.6823 16.769 65.223C18.715 69.7637 21.4023 73.7483 24.831 77.177C28.2597 80.513 32.2443 83.1077 36.785 84.961C41.4183 86.8143 46.4687 87.741 51.936 87.741ZM144.495 99V10.179L147.97 13.793H111.274V1.69999H191.477V13.793H154.781L158.117 10.179V99H144.495ZM208.371 99V1.69999H250.21C260.774 1.69999 269.067 3.83133 275.091 8.09399C281.114 12.3567 284.126 18.5653 284.126 26.72C284.126 34.6893 281.253 40.8053 275.508 45.068C269.762 49.238 262.21 51.323 252.851 51.323L255.353 47.153C266.195 47.153 274.488 49.3307 280.234 53.686C286.072 57.9487 288.991 64.2037 288.991 72.451C288.991 80.791 285.933 87.324 279.817 92.05C273.793 96.6833 264.805 99 252.851 99H208.371ZM222.132 88.019H252.573C259.986 88.019 265.546 86.6753 269.253 83.988C273.052 81.208 274.952 76.9917 274.952 71.339C274.952 65.6863 273.052 61.5627 269.253 58.968C265.546 56.3733 259.986 55.076 252.573 55.076H222.132V88.019ZM222.132 44.512H249.237C256.001 44.512 261.144 43.1683 264.666 40.481C268.28 37.7937 270.087 33.8553 270.087 28.666C270.087 23.384 268.28 19.3993 264.666 16.712C261.144 14.0247 256.001 12.681 249.237 12.681H222.132V44.512ZM324.863 43.678H374.903V55.493H324.863V43.678ZM326.114 86.907H382.826V99H312.214V1.69999H380.88V13.793H326.114V86.907ZM424.531 99V10.179L428.006 13.793H391.31V1.69999H471.513V13.793H434.817L438.153 10.179V99H424.531ZM531.08 35.616C542.571 35.616 551.42 38.2107 557.629 43.4C563.838 48.4967 566.942 56.1417 566.942 66.335C566.942 77.0843 563.56 85.239 556.795 90.799C550.123 96.2663 540.717 99 528.578 99H488.407V1.69999H502.168V35.616H531.08ZM528.022 88.019C536.084 88.019 542.246 86.212 546.509 82.598C550.864 78.984 553.042 73.6557 553.042 66.613C553.042 59.7557 550.911 54.7053 546.648 51.462C542.385 48.2187 536.177 46.597 528.022 46.597H502.168V88.019H528.022ZM582.371 99V1.69999H596.132V99H582.371Z" fill="url(#paint0_linear_2137_53)" fill-opacity="0.46"/>
<defs>
<linearGradient id="paint0_linear_2137_53" x1="263.139" y1="113.924" x2="261.866" y2="-10.8225" gradientUnits="userSpaceOnUse">
<stop stop-color="#16B2B2" stop-opacity="0.17"/>
<stop offset="1" stop-color="#16B2B2" stop-opacity="0"/>
</linearGradient>
</defs>
</svg>
