<svg width="1022" height="144" viewBox="0 0 1022 144" fill="none" xmlns="http://www.w3.org/2000/svg">
<path d="M18.079 122.664C24.9083 125.159 31.2123 125.816 36.991 124.634C42.7697 123.321 47.9573 118.921 52.554 111.435L59.252 100.797L61.222 98.63L111.851 2.09999H131.354L70.087 115.572C65.4903 124.24 60.1057 130.807 53.933 135.272C47.8917 139.606 41.325 141.97 34.233 142.364C27.2723 142.889 20.1803 141.576 12.957 138.424L18.079 122.664ZM60.631 116.163L0.152 2.09999H21.231L71.466 100.403L60.631 116.163ZM212.109 141.576C201.602 141.576 191.883 139.869 182.953 136.454C174.153 132.908 166.47 127.983 159.904 121.679C153.468 115.244 148.412 107.758 144.735 99.221C141.057 90.6843 139.219 81.294 139.219 71.05C139.219 60.806 141.057 51.4157 144.735 42.879C148.412 34.3423 153.534 26.922 160.101 20.618C166.667 14.1827 174.35 9.25766 183.15 5.84299C192.08 2.297 201.799 0.523999 212.306 0.523999C222.944 0.523999 232.728 2.36267 241.659 6.04C250.721 9.58599 258.404 14.905 264.708 21.997L251.903 34.408C246.649 28.892 240.739 24.8207 234.173 22.194C227.606 19.436 220.58 18.057 213.094 18.057C205.345 18.057 198.122 19.3703 191.424 21.997C184.857 24.6237 179.144 28.301 174.285 33.029C169.425 37.757 165.617 43.4043 162.859 49.971C160.232 56.4063 158.919 63.4327 158.919 71.05C158.919 78.6673 160.232 85.7593 162.859 92.326C165.617 98.7613 169.425 104.343 174.285 109.071C179.144 113.799 184.857 117.476 191.424 120.103C198.122 122.73 205.345 124.043 213.094 124.043C220.58 124.043 227.606 122.73 234.173 120.103C240.739 117.345 246.649 113.142 251.903 107.495L264.708 119.906C258.404 126.998 250.721 132.383 241.659 136.06C232.728 139.737 222.878 141.576 212.109 141.576ZM281.885 141.576C279.915 141.576 277.945 141.445 275.975 141.182C274.005 140.919 271.838 140.525 269.474 140L270.853 122.467C272.954 122.992 275.056 123.255 277.157 123.255C282.936 123.255 287.532 120.957 290.947 116.36C294.362 111.763 296.857 104.803 298.433 95.478C300.14 86.1533 301.257 74.399 301.782 60.215L303.949 2.09999H401.07V140H381.764V14.117L386.492 19.239H316.557L320.891 13.92L319.315 59.624C318.921 73.2827 318.002 85.234 316.557 95.478C315.112 105.722 312.945 114.259 310.056 121.088C307.167 127.917 303.424 133.039 298.827 136.454C294.362 139.869 288.714 141.576 281.885 141.576ZM506.079 141.576C495.572 141.576 485.788 139.803 476.726 136.257C467.795 132.711 460.046 127.786 453.48 121.482C446.913 115.047 441.791 107.561 438.114 99.024C434.436 90.4873 432.598 81.1627 432.598 71.05C432.598 60.9373 434.436 51.6127 438.114 43.076C441.791 34.5393 446.913 27.119 453.48 20.815C460.046 14.3797 467.795 9.38899 476.726 5.84299C485.656 2.297 495.441 0.523999 506.079 0.523999C516.585 0.523999 526.238 2.297 535.038 5.84299C543.968 9.25766 551.717 14.1827 558.284 20.618C564.982 26.922 570.104 34.3423 573.65 42.879C577.327 51.4157 579.166 60.806 579.166 71.05C579.166 81.294 577.327 90.6843 573.65 99.221C570.104 107.758 564.982 115.244 558.284 121.679C551.717 127.983 543.968 132.908 535.038 136.454C526.238 139.869 516.585 141.576 506.079 141.576ZM506.079 124.043C513.696 124.043 520.722 122.73 527.158 120.103C533.724 117.476 539.372 113.799 544.1 109.071C548.959 104.212 552.702 98.5643 555.329 92.129C558.087 85.6937 559.466 78.6673 559.466 71.05C559.466 63.4327 558.087 56.4063 555.329 49.971C552.702 43.5357 548.959 37.954 544.1 33.226C539.372 28.3667 533.724 24.6237 527.158 21.997C520.722 19.3703 513.696 18.057 506.079 18.057C498.33 18.057 491.172 19.3703 484.606 21.997C478.17 24.6237 472.523 28.3667 467.664 33.226C462.804 37.954 458.996 43.5357 456.238 49.971C453.611 56.4063 452.298 63.4327 452.298 71.05C452.298 78.6673 453.611 85.6937 456.238 92.129C458.996 98.5643 462.804 104.212 467.664 109.071C472.523 113.799 478.17 117.476 484.606 120.103C491.172 122.73 498.33 124.043 506.079 124.043ZM611.012 140V2.09999H670.309C685.281 2.09999 697.035 5.12066 705.572 11.162C714.109 17.2033 718.377 26.0027 718.377 37.56C718.377 48.8547 714.306 57.5227 706.163 63.564C698.02 69.474 687.317 72.429 674.052 72.429L677.598 66.519C692.964 66.519 704.718 69.6053 712.861 75.778C721.135 81.8193 725.272 90.6843 725.272 102.373C725.272 114.193 720.938 123.452 712.27 130.15C703.733 136.717 690.994 140 674.052 140H611.012ZM630.515 124.437H673.658C684.165 124.437 692.045 122.533 697.298 118.724C702.683 114.784 705.375 108.808 705.375 100.797C705.375 92.7857 702.683 86.9413 697.298 83.264C692.045 79.5867 684.165 77.748 673.658 77.748H630.515V124.437ZM630.515 62.776H668.93C678.517 62.776 685.806 60.8717 690.797 57.063C695.919 53.2543 698.48 47.6727 698.48 40.318C698.48 32.832 695.919 27.1847 690.797 23.376C685.806 19.5673 678.517 17.663 668.93 17.663H630.515V62.776ZM758.185 140V2.09999H777.688V108.48L859.246 2.09999H877.37V140H858.064V33.817L776.309 140H758.185ZM1002.12 140V95.084L1007.24 99.812H964.098C952.934 99.812 943.281 97.9077 935.139 94.099C927.127 90.2903 920.955 84.84 916.621 77.748C912.418 70.5247 910.317 61.8567 910.317 51.744C910.317 41.2373 912.615 32.3067 917.212 24.952C921.808 17.466 928.309 11.8187 936.715 8.01C945.12 4.06999 954.904 2.09999 966.068 2.09999H1021.42V140H1002.12ZM910.317 140L944.398 91.144H964.492L931.199 140H910.317ZM1002.12 88.78V13.526L1007.24 19.239H966.856C955.036 19.239 945.974 21.997 939.67 27.513C933.366 32.8977 930.214 40.909 930.214 51.547C930.214 61.6597 933.169 69.474 939.079 74.99C945.12 80.506 953.985 83.264 965.674 83.264H1007.24L1002.12 88.78Z" fill="url(#paint0_linear_2127_3)" fill-opacity="0.46"/>
<defs>
<linearGradient id="paint0_linear_2127_3" x1="453.486" y1="160.806" x2="451.974" y2="-15.9984" gradientUnits="userSpaceOnUse">
<stop stop-color="#16B2B2" stop-opacity="0.17"/>
<stop offset="1" stop-color="#16B2B2" stop-opacity="0"/>
</linearGradient>
</defs>
</svg>
