<svg width="30" height="30" viewBox="0 0 30 30" fill="none" xmlns="http://www.w3.org/2000/svg">
<path d="M0 15C0 23.2843 6.71573 30 15 30C23.2843 30 30 23.2843 30 15C30 6.71573 23.2843 0 15 0C6.71573 0 0 6.71573 0 15Z" fill="#1BD741"/>
<path d="M8.72757 24.4173C6.85689 24.8988 5.16803 23.1715 5.69154 21.3121C5.87658 20.6549 5.77144 19.9569 5.48708 19.3362C4.86365 17.9753 4.53871 16.4915 4.53871 14.9751C4.53871 9.19766 9.23898 4.49739 15.0164 4.49739C20.7938 4.49739 25.494 9.19766 25.494 14.9751C25.494 20.7525 20.7938 25.4528 15.0164 25.4528C13.5669 25.4528 12.1417 25.154 10.8274 24.5809C10.214 24.3134 9.53231 24.2101 8.88421 24.3769L8.72757 24.4173ZM9.80528 22.3045C10.0379 22.2446 10.2849 22.2814 10.4899 22.4066C11.8495 23.2367 13.4148 23.6754 15.0164 23.6754C19.8138 23.6754 23.7167 19.7725 23.7167 14.9751C23.7167 10.1777 19.8138 6.27475 15.0164 6.27475C10.219 6.27475 6.31607 10.1777 6.31607 14.9751C6.31607 16.6467 6.79116 18.2699 7.68984 19.6694C7.8272 19.8833 7.86639 20.1457 7.7975 20.3904L7.73183 20.6237C7.43355 21.6831 8.39583 22.6673 9.46172 22.3929L9.80528 22.3045Z" fill="white"/>
<path d="M12.0733 10.0985L11.3935 10.0615C11.1799 10.0498 10.9704 10.1212 10.809 10.2614C10.4794 10.5476 9.9524 11.101 9.79053 11.8221C9.54914 12.8972 9.92219 14.2138 10.8877 15.5304C11.8532 16.8469 13.6525 18.9534 16.8342 19.8531C17.8594 20.143 18.666 19.9476 19.2882 19.5495C19.7811 19.2343 20.1208 18.7282 20.2433 18.1562L20.3518 17.6492C20.3863 17.488 20.3045 17.3245 20.1548 17.2555L17.8571 16.1964C17.7079 16.1277 17.531 16.1711 17.4307 16.3011L16.5287 17.4705C16.4605 17.5589 16.3439 17.5939 16.2385 17.5569C15.6208 17.3398 13.5516 16.4732 12.4162 14.2861C12.3669 14.1912 12.3792 14.0761 12.449 13.9952L13.3111 12.9979C13.3992 12.896 13.4214 12.7529 13.3685 12.6291L12.378 10.3119C12.3253 10.1885 12.2072 10.1058 12.0733 10.0985Z" fill="white"/>
</svg>
