<svg width="40" height="40" viewBox="0 0 40 40" fill="none" xmlns="http://www.w3.org/2000/svg">
<path d="M19.0951 13.45L5.82009 27.3825C5.59848 27.615 5.47485 27.9238 5.47485 28.245C5.47485 28.5662 5.59848 28.875 5.82009 29.1075L5.83509 29.1225C5.94253 29.2356 6.07184 29.3256 6.21517 29.3872C6.35851 29.4487 6.51286 29.4804 6.66884 29.4804C6.82482 29.4804 6.97918 29.4487 7.12251 29.3872C7.26584 29.3256 7.39516 29.2356 7.50259 29.1225L20.0026 16.0025L32.4976 29.1225C32.605 29.2356 32.7343 29.3256 32.8777 29.3872C33.021 29.4487 33.1754 29.4804 33.3313 29.4804C33.4873 29.4804 33.6417 29.4487 33.785 29.3872C33.9283 29.3256 34.0577 29.2356 34.1651 29.1225L34.1801 29.1075C34.4017 28.875 34.5253 28.5662 34.5253 28.245C34.5253 27.9238 34.4017 27.615 34.1801 27.3825L20.9051 13.45C20.7884 13.3275 20.6479 13.2299 20.4924 13.1633C20.3368 13.0966 20.1693 13.0623 20.0001 13.0623C19.8309 13.0623 19.6634 13.0966 19.5078 13.1633C19.3522 13.2299 19.2118 13.3275 19.0951 13.45Z" fill="white"/>
</svg>
