<svg width="36" height="40" viewBox="0 0 36 40" fill="none" xmlns="http://www.w3.org/2000/svg">
<path d="M18.865 0.347628C18.6323 0.124546 18.3224 0 18 0C17.6776 0 17.3677 0.124546 17.135 0.347628C14.376 2.99063 10.45 4.42463 7.098 5.18763C5.438 5.56363 3.959 5.76763 2.896 5.87763C2.34594 5.93404 1.79438 5.97472 1.242 5.99963H1.22C0.893706 6.00746 0.583418 6.14261 0.355447 6.37618C0.127476 6.60976 -9.39609e-05 6.92324 5.19253e-08 7.24963V16.7496C5.19253e-08 21.5866 1.243 26.4076 4.098 30.5246C6.959 34.6506 11.388 37.9936 17.627 39.9426C17.87 40.0186 18.13 40.0186 18.373 39.9426C30.94 36.0156 36 26.4966 36 16.9996V7.24963C36.0001 6.92324 35.8725 6.60976 35.6446 6.37618C35.4166 6.14261 35.1063 6.00746 34.78 5.99963H34.758L34.678 5.99663C34.1523 5.9709 33.6275 5.93089 33.104 5.87663C31.6908 5.73055 30.2877 5.50014 28.902 5.18663C25.549 4.42463 21.623 2.99163 18.865 0.347628Z" fill="#16B2B2"/>
<line x1="12.3536" y1="17.6464" x2="17.3536" y2="22.6464" stroke="white"/>
<line x1="25.3737" y1="14.3322" x2="17.3737" y2="23.3322" stroke="white"/>
</svg>
